<svg xmlns="http://www.w3.org/2000/svg" viewBox="0 0 349.5 372.26"><defs><style>.a{fill:#101010;}</style></defs><title>Backfeed Triangle Logo</title><path class="a" d="M2056,5191.09c-4.23-3.49-11.09-2.18-15.29,2.91s-4.17,12.08.06,15.56a8.75,8.75,0,0,0,5.65,2,10.75,10.75,0,0,0,2.09-.21,13.78,13.78,0,0,0,10.69-13A9.13,9.13,0,0,0,2056,5191.09Zm-1.18,14.54a11.63,11.63,0,0,1-6.62,4.11,7.55,7.55,0,0,1-6.4-1.42c-3.55-2.92-3.48-8.89.16-13.29a11.18,11.18,0,0,1,8.38-4.29,7.19,7.19,0,0,1,4.64,1.6,7.55,7.55,0,0,1,2.61,6A11.63,11.63,0,0,1,2054.78,5205.63Z" transform="translate(-1767.04 -5085.18)"/><path class="a" d="M1986.82,5325.43c-0.59-.09.15,0.08,0,0h0Z" transform="translate(-1767.04 -5085.18)"/><path class="a" d="M1914.24,5252.9l0.72-1C1914.7,5252.26,1914.46,5252.59,1914.24,5252.9Z" transform="translate(-1767.04 -5085.18)"/><path class="a" d="M2113.66,5111.39a33,33,0,0,0-10.6-11.52l-0.29-.21-0.32-.17a233.09,233.09,0,0,0-28.12-13h-0.05a22,22,0,0,0-7.39-1.29c-5.53,0-10.36,2.12-13.25,5.83a13.62,13.62,0,0,0-2.36,4.67c-5.94.21-8.6,5.65-9.55,7.69a66.6,66.6,0,0,0-5.5,14.26c-5.41,17.52-27.91,32.49-39.09,38l0,0,0,0a9,9,0,0,0-2.82,2.3,12.41,12.41,0,0,0-5.28,1.58l-0.12.06-0.11.07c-7.12,4.33-18.27,11.1-19.81,12l-0.38.21-0.34.26a13.5,13.5,0,0,0-2.84,3.22,11.5,11.5,0,0,0-4.7,1.63l-25.15,13.77-0.36.2a4,4,0,0,0-1.23,1.05l-0.25.33-1.37,1.78a15,15,0,0,0-7.38,2.5c-11.07,5.54-22.3,10.82-33.36,15.68l-0.12.05-0.12.06a7.79,7.79,0,0,0-2,1.42h-0.15a15.29,15.29,0,0,0-6.26,1.47l-26.49,9h-0.05a12.74,12.74,0,0,0-3.24,1.63,29.28,29.28,0,0,0-5.18.71c-1.14.27-3.54,0.9-6.59,1.69-3.51.92-7.48,2-10.06,2.58l-7.94,1.94a11.35,11.35,0,0,0-6-1.66h-0.25c-22,0-37.63,5.87-45.16,17-6.29,9.29-6.64,21.37-1,35.94a27.92,27.92,0,0,0,8.25,18.26l0.16,0.17,0.18,0.15c6.95,6,14.66,8.87,24.29,8.87a112.51,112.51,0,0,0,14.7-1.32,134.07,134.07,0,0,1,18.17-1.54c14.77,0,28.73,4.23,43.93,13.31,5.56,3.53,8,4.49,9.83,4.64a15.6,15.6,0,0,0,3.39.37h0.55a20.25,20.25,0,0,0,6.53,4.83l0.12,0.07,0.13,0.06,22,10.58a12.32,12.32,0,0,0,5.19,1.57,33.84,33.84,0,0,0,3.25,2.2c3,1.86,22.42,12.54,24.63,13.76l0.31,0.17,0.33,0.13a14.44,14.44,0,0,0,1.85.62c2.77,3.93,8.23,8.45,16.82,15.41,9.12,7.4,19.47,15.78,26.16,24.16a35.15,35.15,0,0,0,7,6.7,8.73,8.73,0,0,0,5.28,2.15c3,13.28,7.45,24.08,13.38,32.14,7.67,10.43,17.69,15.94,29,15.94a44.26,44.26,0,0,0,18.15-4.27c1.14-.49,15.27-6.57,24.48-11.11l0.11-.05,0.11-.06A24.37,24.37,0,0,0,2110,5430.2a36.08,36.08,0,0,0,2.84-14.78,64.31,64.31,0,0,0-6.42-27l-0.06-.13-0.07-.12c-4.22-7.64-10.71-11.45-16.43-14.81-11.57-6.79-22.5-13.22-20.39-53.19,0.56-6.9.21-10.76-.71-13.22a33.73,33.73,0,0,0,.82-8.09c0-2.72,0-5.88,0-8.93,0-5.45,0-11.08,0-12.26a7.94,7.94,0,0,0-.7-3.62,11.16,11.16,0,0,0,.61-2.95c0.19-2.78.87-23.15,0.89-25.56a11.18,11.18,0,0,0-.19-2.21,22.15,22.15,0,0,0,2.87-7.46c0.58-2.82,1.68-8.19,2.77-13.53,1.24-6.09,2.53-12.38,3-14.48a17.33,17.33,0,0,0,.52-3.92,22.51,22.51,0,0,0,1.94-6.86c1.06-6.15,3-17.6,19.12-40.76a17.34,17.34,0,0,0,2-3.46,16.93,16.93,0,0,0,2.6-2.48l0.64-.7a40.8,40.8,0,0,0,10.7-22.62h0A26,26,0,0,0,2113.66,5111.39Zm-115.8,52.66s1.56-3.13,2.29-3.5c8.84-4.34,35.8-20.54,42.2-41.76a60.7,60.7,0,0,1,5.08-13.16c1.55-3.36,3-4.42,4.6-4.42s3.05,1,5.3,2.23c3.41,2,6.58,3.5,10.44,5.57l10,5.65a37.78,37.78,0,0,0-3.2,3,65.77,65.77,0,0,0-10.92,16.33c-1.57,3.13-3,6.44-4.28,9.87-0.67,1.71-1.27,3.46-1.89,5.23-0.15.45-.33,0.86-0.51,1.3s-0.33.88-.55,1.3c-0.41.84-.79,1.71-1.28,2.52a52.61,52.61,0,0,1-6.76,9.37c-2.6,2.93-8.64,8.1-11.59,10.8-5.73.53-41.74,4.1-45.28,4.65Zm33.06,39.29a14.37,14.37,0,0,0,.32,2.11c0.08,0.35.18,0.69,0.28,1s0.23,0.67.36,1a15.43,15.43,0,0,0,.93,1.91,15.68,15.68,0,0,0,1.19,1.75,17.6,17.6,0,0,0,1.39,1.57c0.25,0.24.5,0.49,0.76,0.72l0.79,0.67,0,0h0l0.25,1.05-9.62,15.25a2.73,2.73,0,0,1-3.17,1.13c-2.75-.9-6.26-1-10.73.11a23.33,23.33,0,0,0-2.47.63c-0.85.25-1.7,0.57-2.57,0.91-0.3.12-.86,0.37-1.48,0.65h0l-0.79.36c-1.09.33-1.75-.34-1.87-1.85l0.27-17.88,0.08-5.48c0-1.83.1-3.65,0-5.5,0-.46-0.05-0.92-0.12-1.38l-0.09-.69-0.15-.68a9.67,9.67,0,0,0-.41-1.34c-0.06-.15-0.13-0.29-0.21-0.43,5.77-3.42,11.55-7,17.21-10.76,5-3.43,10-7,14.72-10.85l3.33,8.4c-0.31.3-.62,0.6-0.92,0.91-0.48.49-.94,1-1.39,1.51s-0.88,1-1.29,1.59-0.81,1.11-1.19,1.68-0.73,1.17-1.06,1.78-0.63,1.23-.91,1.87-0.52,1.29-.73,2a19.1,19.1,0,0,0-.52,2,15.57,15.57,0,0,0-.27,2.1c0,0.35,0,.71,0,1.06S2030.89,5203,2030.92,5203.35Zm3.67,61.65,0.12,13.68,0.06,11.51h-0.54a13.4,13.4,0,0,1-3-.52c-0.5-.13-1-0.32-1.47-0.5l-1.44-.64-2.85-1.29-5.54-2.51-0.48-.22a3.77,3.77,0,0,1-2.21-3.54l0.37-12.85,0.35-10.42a1.62,1.62,0,0,1,2.22-1.45l0.37,0.15,2.73,1.09,1.39,0.56,0.35,0.14,0.09,0,0.2,0.07,0.18,0.06,0.73,0.22c0.49,0.15,1.06.29,1.59,0.42s1.08,0.24,1.65.32a15.33,15.33,0,0,0,3.52.17,13.26,13.26,0,0,0,1.59-.25c0,1.37,0,2.8.05,4.3V5265h0Zm-21.43,50.28,0.17,0.08,0.23,0.12c1.46,0.77,1.8,1.6,1.8,3.42v0l0,0.9v0h0c-0.12,5.62-.23,11.24-0.3,16.78,0,2.92-.07,5.82-0.09,8.68s-0.05,5.69,0,8.47,0,5.52,0,8.19l0,1.56a0.72,0.72,0,0,1-1.1.63c-1.63-1-4-2.43-7-4.21l-5.05-3-6-3.43-6.84-3.84c-2.41-1.35-5-2.72-7.62-4.18l-8.34-4.45-7.28-3.75c-2.53-1.28-2.9-2.26-2.79-4.85l0.23-6.41,0.13-3.44c0-.57,0-1.15.09-1.73s0.08-1.14.18-1.71a19,19,0,0,1,.7-3.36,12.43,12.43,0,0,1,.5-1.3h0l4,2.12c2.32,1.22,4.51,2.4,6.54,3.55a56.38,56.38,0,0,0,11.07,5,3.38,3.38,0,0,1,.45.16l0.13,0H1987a17.07,17.07,0,0,0,2,.21h0.15a12.05,12.05,0,0,0,1.23,0h0c0.27,0,.52,0,0.75-0.09l0.23,0,0.12,0,0.17,0,0.28-.07,0.22-.06,0.12,0,0.08,0h0c0.28-.1.52-0.21,0.71-0.29h0l0.44-.27,0.16-.1h0l0.76-.55,0,0,0.21-.22,0.3-.31c0.11-.13.23-0.29,0.37-0.46a5.13,5.13,0,0,0,.42-0.61l0.22-.36,0.21-.4a11.66,11.66,0,0,0,.78-1.94,17,17,0,0,0,.52-2.43c0.14-.87.41-5.91,0.53-8.22,0.1-1.85,1.32-1.27,2.35-.61,0.09,0.06,4.76,2.91,8.25,4.56,1.39,0.65,2.83,1.47,4.4,2.24h0Zm-97-41q11.84-6.72,18.67-4.93c0.93,0.28,1.84.55,2.72,0.83s1.93,0.63,2.81.94,5.31,2.32,6.77,3.06l0.47,0.27v0a47.6,47.6,0,0,1,8.78,5.53,2.7,2.7,0,0,1,1.06,2.52c0.05,1.66-2.24,2.27-4.26,3.6-0.26.14-.52,0.29-0.76,0.45l-2.08,1.06-2.72,1.45c-0.91.48-1.82,1-2.71,1.47l-2.69,1.5-0.85.48-0.15.08h0c-0.56.32-1.13,0.63-1.69,1l-2.55,1.48a25.49,25.49,0,0,0-2.67,1.4,15.62,15.62,0,0,0-1.62,1.17q-3.07-1.34-6.23-2.66c-6.67-2.76-13.62-5.47-20.8-7.93q-3.39-1.16-6.83-2.26a7.58,7.58,0,0,1,1.34-1.43,9.24,9.24,0,0,1,2.19-1.34h0l13.79-7.67h0Zm83.64-36.42-1.47.92,0,0h0c-0.38.24-20.88,12.62-23.55,12.62a1.92,1.92,0,0,1-.8-0.16l0-.67-0.73-21.42-0.19-5.51a10.62,10.62,0,0,0-.38-2.76,5.41,5.41,0,0,0-1.41-2.43,4.58,4.58,0,0,0-.82-0.61q4.72-2.52,9.59-5.19c6.69-3.66,13.58-7.5,20.51-11.54l1.82-1.07,0.09,0.18a7.69,7.69,0,0,1,.34,1l0.14,0.56,0.09,0.6a12.31,12.31,0,0,1,.14,1.24c0,0.42.05,0.85,0.07,1.29l0,0.65v0.69l0,2.74,0.1,5.49C2003.21,5221.55,2003.94,5235.17,1999.75,5237.81Zm15.73-3.55c2.87,2.64,2.72,10.69,2.05,17.44a1.91,1.91,0,0,1-2.27.79l-1-.36c-7.44-3.48-13.71-5.12-14.17-8.85h0C2005.89,5238.76,2011,5235.73,2015.49,5234.26Zm-37,68.54c5.75-3.52,11.87-7.63,14.26-7.57a1.42,1.42,0,0,1,1.35,1.17c0.16,0.61,0,15.24,0,16.54-1,13.27-7.56,12.22-19.29,6-2.91-1.74-6.11-3.57-9.57-5.46q0.2-.37.43-0.73a17.72,17.72,0,0,1,4.67-4.65c0.44-.32.89-0.61,1.32-0.92l1.33-.85,2.57-1.66,3-1.92h0Zm15.16-26.6c-1,3.35-1,7.68-.78,12.67l-0.72,0c-2.3-1.76-5.58-3.19-9.62-5l-2.69-1.19,0,0,0,0-2.5-1.08c-5.17-2.25-10.51-4.59-15.43-4.59a30.78,30.78,0,0,0-6.21-4.89c2.16-1.25,4.23-2.55,6.65-4.16,1.7-1.14,3.41-2.2,5.06-3.22,4.15-2.57,7.93-4.91,10.2-7.82,3.58-.91,8.05-3.4,14.26-7l2.33-1.34c-0.85,3.07-1,6.87-1.06,11,0,1.11-.06,2.26-0.11,3.36,0,0.67-.06,1.33-0.1,2C1992.62,5268.8,1992.41,5272.83,1993.65,5276.2Zm-22.21-52.55,0.38,5.5c0.13,1.83.25,3.67,0.4,5.5-0.07,11.47,2.38,19.28-4.29,22.67-2.59,1.71-5.78,3.55-9,5.69a116.28,116.28,0,0,1-12,7.06l-0.88-.32c-0.34-.12-0.71-0.27-1.09-0.38l-1.19-.36c-0.83-.27-1.73-0.47-2.68-0.72l-1.7-.38-0.25-4.65-0.35-6.06-0.72-12.13h0v0a13.1,13.1,0,0,0-1.06-3.89,6.4,6.4,0,0,0-1.21-1.73,5.91,5.91,0,0,0-1.77-1.18l-0.45-.18,2.14-1.27c2.39-1.4,4.9-2.88,7.56-4.37,5.3-3,11.11-6.13,17.26-9.42l7.74-4.12a3.88,3.88,0,0,1,1.66.77A5.56,5.56,0,0,1,1971.44,5223.65Zm-32.08,44.25-0.07,0-0.07-1.36Zm-5.74-28.64a5,5,0,0,1,1.47.93,5.37,5.37,0,0,1,1.06,1.41,10.91,10.91,0,0,1,1,2.89l0.93,22.95c-6.17-2.25-31.14-12.5-14.22-23.21l0,0,1.32-.86,3.87-2.46q1.56-1,3.24-2A7.23,7.23,0,0,1,1933.62,5239.26Zm1.75,58.82a26.5,26.5,0,0,1,2.47-1.39h0l5.85-3.65c11.78-6.92,17.57-10.07,22.28-9.45a100.83,100.83,0,0,1,11.43,4.53c6.34,2.83,12.16,4.51,12,7.3l-0.33.16c-0.49.24-1.22,0.58-2.12,1.05s-2,1-3.26,1.7-2.66,1.41-4.18,2.27-3.17,1.76-4.89,2.77l-2.65,1.54c-0.42.24-.93,0.53-1.38,0.81s-0.94.6-1.41,0.92a25.44,25.44,0,0,0-2.8,2.18,14.34,14.34,0,0,0-2.5,2.88q-0.27.42-.52,0.86l-1.38-.74c-5.09-2.72-10.66-5.55-16.62-8.42-3.41-1.64-6.95-3.28-10.59-4.91Zm63.47-34.94c0.29-6.71,0-14.05,2.52-15.41l0.1,0,0.66,0.35c0.43,0.22,1.06.57,1.88,1s1.8,0.9,2.94,1.43,2.42,1.15,3.84,1.77,2.94,1.32,4.58,2l0.36,0.15a3,3,0,0,1,1.81,2.87l-0.48,10.82-0.5,12.56a1.69,1.69,0,0,1-2.38,1.47l-4.09-1.86c-0.77-.35-7.11-3-9-4.75a6.64,6.64,0,0,1-2.25-3.62c-0.09-.41-0.16-0.82-0.21-1.23C1998.51,5268.45,1998.72,5265.82,1998.84,5263.13Zm17.88,38.14,0.31-13.58a1.43,1.43,0,0,1,2.06-1.25h0c1.77,0.86,3.58,1.8,5.46,2.67l2.83,1.33,0.74,0.34,0.72,0.32a17.74,17.74,0,0,0,1.72.61,15.3,15.3,0,0,0,3.55.56h0.65l0,4.34c0,6.37,0,13.09,0,20q0,2.88,0,5.82a22.49,22.49,0,0,1-4-1.34l-13.06-5.62a2.19,2.19,0,0,1-1.32-2C2016.57,5309.39,2016.63,5305.31,2016.72,5301.27Zm16-44a17,17,0,0,1-6-.75l-0.73-.21-0.18-.05-0.08,0-0.09,0-0.35-.13-1.41-.51-2.77-1-1.48-.53a2.36,2.36,0,0,1-1.56-2.31l0.16-4.38a52.3,52.3,0,0,0,0-5.77,21.4,21.4,0,0,0-.8-5,7.64,7.64,0,0,0-1.31-2.59c4.11-1.21,7.7-1.08,10.82.46a14,14,0,0,1,2.69,2.25l0,0,0,0.05c2.94,3.76,4.2,10,4.64,17.41,0,0.89.07,1.82,0.08,2.78A11.78,11.78,0,0,1,2032.75,5257.32Zm-64.44-75.7h0l0.11-.17,0.28-.43h0c0.48-.76,1.34-2.07,2.09-3.05a6.35,6.35,0,0,1,1.84-1.64c4.08-2.4,19.21-11.62,19.21-11.62a6.38,6.38,0,0,1,3.08-.87,1,1,0,0,1,1,1.56l-6.56,14.78-0.39.75,0.86-.08c3.85-.37,7.7-0.82,11.55-1.23l11.54-1.3c3.85-.43,7.69-0.9,11.53-1.35q5.36-.63,10.72-1.3s-9.76,7.77-14.93,11.25c-5.63,3.78-11.39,7.38-17.15,10.82-0.19-.2-0.39-0.39-0.59-0.57l-0.59-.39a1.94,1.94,0,0,0-.49-0.25c-0.16-.05-0.32-0.14-0.48-0.19l-0.34-.09c-0.23-.06-0.45-0.14-0.68-0.17a11.09,11.09,0,0,0-1.39-.16,28.43,28.43,0,0,0-5.5.42l-5.44.7-10.87,1.45-21.42,2.85Zm-36.6,23.21,3.59-4.95,2.75-3.56a2.57,2.57,0,0,1,.8-0.69c3.52-1.92,25.44-13.93,25.72-14,2-.7,2.89-0.48-0.33,4.3L1952,5203.22l3.15-.32c3.64-.38,7.28-0.7,10.92-1.12s7.27-.79,10.9-1.25l10.88-1.37,5.43-.75a26.8,26.8,0,0,1,5.1-.45,9.49,9.49,0,0,1,1.12.11c0.18,0,.33.08,0.5,0.11l0.25,0.06,0.21,0.09a2.77,2.77,0,0,1,.84.45l-1.65,1c-6.9,4.06-13.76,7.92-20.43,11.61q-5.33,2.95-10.46,5.75l-0.12,0a11.78,11.78,0,0,0-2.77-.32,32.73,32.73,0,0,0-5.51.52c-7.25,1.23-14.5,2.43-21.75,3.69l-21.34,3.68,14.4-19.82h0Zm-39.78,15.56a11.94,11.94,0,0,1,3.16-3.23c11.13-4.89,21.29-9.69,32.78-15.45a11.76,11.76,0,0,1,2.47-1.28c4.12-1.68-10,17.82-10,17.82-0.78.94-1.54,1.9-2.3,2.85l-2.29,2.85-2.4,3,3.89-.55c1.82-.26,3.64-0.5,5.45-0.78l5.44-.83c1.81-.28,3.63-0.54,5.44-0.84l5.43-.89,5.43-.89c1.81-.29,3.62-0.63,5.42-0.94,3.61-.65,7.23-1.25,10.84-1.94,0.91-.18,1.8-0.31,2.66-0.42a24.78,24.78,0,0,1,2.68-.2h0c-8.37,4.58-16.21,8.89-23.18,12.94-3.67,2.13-7.09,4.19-10.23,6.17a14.42,14.42,0,0,0-2.55-.32,32.48,32.48,0,0,0-4,.11c-1.33.11-2.59,0.26-3.9,0.4-0.65.06-1.3,0.17-1.95,0.26s-1.3.19-1.94,0.3c-2.58.41-5.15,0.94-7.69,1.52s-5.07,1.23-7.59,1.9-5,1.4-7.51,2.16c-5,1.51-9.93,3.14-14.86,4.8q-3.53,1.19-7,2.42a1.3,1.3,0,0,1-1.48-2l0.46-.64,7.77-10.89c2.79-4,6-9.43,8.14-12.41Zm-37,12.92,0.88-1.51a5.1,5.1,0,0,1,2.51-2s17.65-6,26.27-8.8c2.54-.81,4.31-1.25,4.58-1.34,2.22-.71-7.79,13-8.49,14l-2.15,2.93-2,3c-0.69,1-1.28,2-1.9,3s-1.17,1.92-1.7,2.82-5.11,7.95-7,8.68l-14.7,5.19-7.35,2.58-7.36,2.54-4.54,1.52a1.05,1.05,0,0,1-1.15-1.66l10.21-12.63C1848.14,5242.56,1855,5233.31,1855,5233.31Zm-29.33,5h0l7.09-1.73c4.79-1.15,14.26-3.67,16.6-4.27,6.21-1.59-1.11,7.66-1.94,8.57s-1.74,1.85-2.61,2.87-1.83,2-2.71,3.14l-2.72,3.3-2.63,3.38c-0.88,1.1-1.67,2.25-2.47,3.33s-1.53,2.16-2.23,3.18-5.5,8-10.26,9.1a93.22,93.22,0,0,1-11.53,2.09,64.28,64.28,0,0,1-8.37.42c-1.36,0,4.35-10.55,7.15-14.43l7.6-10.72c0.68-1,1.41-1.72,1.92-2.44C1821.32,5240.87,1823.65,5238.72,1825.64,5238.33Zm-25.4,28.85c-0.44.79-.81,1.53-1.14,2.19l-0.18.35a2.79,2.79,0,0,1-2.88,1.55,28.41,28.41,0,0,1-8.67-2.52,15.34,15.34,0,0,1-4.55-3.32,9.41,9.41,0,0,1-2.44-4.88,9.14,9.14,0,0,1,.88-5.4,14.31,14.31,0,0,1,3.5-4.46,23.76,23.76,0,0,1,4.82-3.21,33.32,33.32,0,0,1,5.44-2.17,58.17,58.17,0,0,1,11.79-2.7c3.78-.31,8.56-0.88,12.32-0.9-0.16.15-1.75,2.13-1.91,2.3-0.52.52-1.1,1.12-1.71,1.79s-1.28,1.38-1.94,2.17-1.39,1.6-2.08,2.48-1.45,1.76-2.14,2.72l-2.12,2.86-2,2.94c-0.68,1-1.27,2-1.88,2.9s-1.16,1.88-1.68,2.77S1800.66,5266.39,1800.24,5267.18Zm16.95-30.14h0a5,5,0,0,1,2.82.78c1.07,1.23.32,2.43-.87,3.86-3.67-.46-8.52.28-12.37,0.48a60.68,60.68,0,0,0-12,2.37,34.22,34.22,0,0,0-5.66,2.05,23.11,23.11,0,0,0-5.13,3.24,15.49,15.49,0,0,0-3.88,4.77,10.44,10.44,0,0,0-1.1,6.14,10.83,10.83,0,0,0,2.69,5.66,16.85,16.85,0,0,0,4.93,3.75,27,27,0,0,0,5.73,2.15,39.52,39.52,0,0,0,6,1,61,61,0,0,0,12.06-.14,95.25,95.25,0,0,0,11.84-2h0.07c9.94-3.11,19.78-6.48,29.59-9.93l14.68-5.24,14.69-5.19c4.9-1.71,9.81-3.38,14.76-4.93s9.9-3.06,14.92-4.3c2.51-.63,5-1.2,7.57-1.65,0.63-.12,1.27-0.23,1.91-0.33s1.27-.22,1.91-0.29c1.27-.16,2.58-0.35,3.84-0.47a31.31,31.31,0,0,1,3.81-.19c0.38,0,.76,0,1.13.07-0.85.55-1.68,1.09-2.48,1.63a91.21,91.21,0,0,0-9.9,7.1c-9.36,8.3,1.35,15.71,6.68,18.58a2.31,2.31,0,0,1,.65,2.14l-1.52.64c-1.14.48-2.27,1-3.39,1.49s-2.25,1-3.36,1.54l-1.67.78c-0.56.26-1.12,0.52-1.67,0.79l-3.31,1.63c-1.11.54-2.21,1.09-3.3,1.66l-4.92,2.54-1.57.85a11.27,11.27,0,0,0-2.6,1.57,9.92,9.92,0,0,0-2.12,2.38c-4.31-1.34-8.67-2.59-13.06-3.71a216.91,216.91,0,0,0-22.58-4.49,145.49,145.49,0,0,0-22.28-1.51c-1.82.05-3.63,0.15-5.41,0.22-0.9,0-1.77.12-2.64,0.21l-2.6.27-1.29.13-0.67.07-0.64.08-2.53.31c-0.84.1-1.67,0.21-2.5,0.29l-2.47.23a117.92,117.92,0,0,1-18.47.39c-0.72,0-1.42-.1-2.11-0.18l-2.06-.22-2-.32c-0.66-.1-1.31-0.2-1.94-0.35l-1.88-.41-1.8-.51c-0.29-.09-0.59-0.16-0.88-0.26l-0.84-.31c-0.55-.21-1.12-0.38-1.64-0.64a19.84,19.84,0,0,1-5.47-3.36,13.92,13.92,0,0,1-3.34-4.28,13.53,13.53,0,0,1-1.27-4.22,14.3,14.3,0,0,1-.05-3.29,15.17,15.17,0,0,1,.34-2c0.1-.38.16-0.6,0.18-0.65C1779.93,5242.78,1795.88,5237,1817.19,5237Zm-42.43,18.49c0,0.09-.1.29-0.2,0.61a15.24,15.24,0,0,0-.42,2,14.49,14.49,0,0,0-.09,3.33,13.2,13.2,0,0,0,1.15,4.37,14.43,14.43,0,0,0,3.32,4.54,20.52,20.52,0,0,0,5.54,3.64c0.52,0.28,1.1.47,1.66,0.71l0.86,0.34c0.29,0.12.59,0.2,0.89,0.3l1.83,0.58,1.91,0.47c0.64,0.17,1.3.3,2,.41l2,0.36,2.09,0.26c0.71,0.09,1.42.18,2.14,0.23a119.25,119.25,0,0,0,18.69,0l2.5-.18c0.84-.07,1.68-0.17,2.52-0.25l2.55-.26,0.64-.07,0.62-.06,1.29-.11,2.6-.22c0.87-.07,1.75-0.17,2.62-0.18,1.75-.05,3.5-0.13,5.28-0.16a150.21,150.21,0,0,1,22,1.68,214.8,214.8,0,0,1,22.34,4.52c4.24,1.06,8.45,2.26,12.61,3.53-0.13.31-.24,0.63-0.33,0.94a15.92,15.92,0,0,0-.61,2.91c-0.07.48-.09,1-0.12,1.44s0,1,0,1.46l0,1.33,0.07,1.31,0.3,5.26c0,0.88.12,1.75,0.18,2.63l0,0.48a1.07,1.07,0,0,1-1.47,1.06l-4-1.61c-3.74-1.48-7.48-2.92-11.23-4.26a227.23,227.23,0,0,0-22.33-6.85,120.32,120.32,0,0,0-21.56-3.47,80.17,80.17,0,0,0-10.13,0,92.53,92.53,0,0,0-9.39,1.15c-3,.5-5.83,1.07-8.56,1.45a42.42,42.42,0,0,1-7.79.46,37.58,37.58,0,0,1-9.9-1.8c-8.08-3.23-10.92-5.39-12.07-7.16C1772.17,5276,1772,5262.45,1774.75,5255.53Zm121.2,65.3a7.13,7.13,0,0,1-2.07.2c-0.9,0-4.76-.73-10.11-4.13-19-11.35-34.2-14.19-47-14.19s-23.38,2.86-32.87,2.86c-7.17,0-13.76-1.64-20.38-7.39l-0.06-.05a22.7,22.7,0,0,1-6.3-12.12,0.69,0.69,0,0,1,1-.72l0.77,0.4c0.44,0.23,10.25,6.52,19.5,6.66a53.13,53.13,0,0,0,7.83-.4c16.21-2.43,27.5-4.32,49.79.75,7.11,2.53,14.75,4.28,22.2,7,3.73,1.36,7.45,2.83,11.17,4.34,1.28,0.52,3.66,1.52,5,2.09a1.82,1.82,0,0,1,1.11,1.52l0.31,3.42c0.12,1.47.5,7.25,0.62,9A0.68,0.68,0,0,1,1896,5320.83Zm31.07,16.93a7.46,7.46,0,0,1-1.08-.52l-0.74-.36h0l-21.43-10.31c-3.56-1.93-5.83-3.65-6.43-6.62a3.94,3.94,0,0,1-.07-0.68l-0.25-10.41a1.07,1.07,0,0,1,1.48-1l2,0.85c3.74,1.53,7.43,3.14,11.12,4.71s7.35,3.2,11,4.85q2.76,1.24,5.48,2.49a1.41,1.41,0,0,1,.82,1.22l0,0.67h0C1929.05,5335.56,1928.51,5338,1927,5337.75Zm1.84-33.22a29,29,0,0,0-.27,3.07c0,1.06,0,1.92,0,2.94s0,1.9.05,2.86l0.14,4.51a1.06,1.06,0,0,1-1.5,1l-4.12-1.82c-3.63-1.62-7.32-3.17-11-4.77s-7.43-3.13-11.18-4.62l-2.77-1.13a2,2,0,0,1-1.26-1.83l-0.1-4.22-0.13-5.26-0.05-2.63a21,21,0,0,1,.17-2.59,13.85,13.85,0,0,1,.55-2.53,9,9,0,0,1,.36-1q3.63,1.14,7.21,2.35c7.13,2.44,14.09,5,20.75,7.71q2.82,1.15,5.57,2.3a10.3,10.3,0,0,0-1.5,2.44A13.7,13.7,0,0,0,1928.87,5304.54ZM1961,5340l-0.31,14a1,1,0,0,1-1.34.91l-0.2-.08-0.12-.06c-1.21-.66-21.45-11.78-24.28-13.55-0.74-.46-1.33-0.84-1.81-1.16-1.72-.89-2.26-5.51-2.38-11.48v-4.68a1.29,1.29,0,0,1,1.83-1.16q5.76,2.69,11.31,5.38c3.39,1.67,6.74,3.29,10,4.94,2.13,1.06,4.21,2.13,6.26,3.18a1.88,1.88,0,0,1,1,1.65V5339c0,0.33,0,.66,0,1h0Zm0.35-21c-0.1.62-.11,1.25-0.17,1.87s0,1.14-.07,1.77L1961,5326c-0.08,2.28,0,4.53-.07,6.7q0,0.21,0,.42a1.11,1.11,0,0,1-1.61,1q-2.44-1.23-4.95-2.46c-3.26-1.63-6.62-3.23-10-4.87q-5.85-2.76-11.94-5.55a3.11,3.11,0,0,1-1.82-2.84v-2.16l0-5.71c0-.95,0-1.91.06-2.85a27,27,0,0,1,.28-2.82,13.3,13.3,0,0,1,.73-2.7,8.08,8.08,0,0,1,1.56-2.41h0c3.94,1.67,7.76,3.35,11.44,5,6,2.74,11.6,5.46,16.73,8.07l1.4,0.72a14.57,14.57,0,0,0-.65,1.63A21.2,21.2,0,0,0,1961.37,5318.94Zm53.43,84.53a2.92,2.92,0,0,1-2.26-.8,29.37,29.37,0,0,1-6.17-5.83c-11.69-14.63-33.61-29.1-41.3-37.51a10.54,10.54,0,0,1-2.76-6.26,28.07,28.07,0,0,1-.06-3.14h0l0.19-5.27,0.17-4.76a1.4,1.4,0,0,1,2.05-1.19l7.47,3.94,8.28,4.51c2.64,1.48,5.18,2.87,7.57,4.23l6.79,3.89,5.94,3.47,5,3c3,1.8,5.38,3.27,7,4.25l2.24,1.38,0,2.47c0,2.55.1,5,.14,7.43s0.1,4.72.19,6.94l0.22,6.39,0.29,5.76L2016,5399l0.17,2.44,0.13,1.89A7.24,7.24,0,0,1,2014.8,5403.47Zm1-102.22c-0.12,3.76-.23,7.56-0.32,11.37a1.28,1.28,0,0,1-1.79,1.14l-4.54-2c-5.22-2.42-10-5.52-10-7.42,0,0-1.45-25.54,1.1-28.16,0.58,0.34,1.19.64,1.81,0.93l0.83,0.5c0.8,0.47,1.76,1.06,2.88,1.68s2.38,1.36,3.77,2.11,2.89,1.58,4.5,2.4l0.28,0.14a3.69,3.69,0,0,1,2,3.4Zm0.49,44.07c0-2.86,0-5.75,0-8.67,0-6.13.06-12.36,0.13-18.59a0.68,0.68,0,0,1,1-.66l1.06,0.5c1.83,0.85,3.7,1.77,5.64,2.62l5.88,2.62a32,32,0,0,0,3.24,1.15,13.73,13.73,0,0,0,1.56.33q0,6.65.11,13.49c0.06,3.64.09,7.35,0.25,11,0.15,3.18.24,6.36,0.4,9.56l-18.27-7.59a1.63,1.63,0,0,1-1-1.5Q2016.34,5347.49,2016.33,5345.32Zm37.13-31.25-5.75,3.65-2.41,1.5-1.25.78c-0.4.26-.87,0.47-1.3,0.71A26,26,0,0,1,2040,5322a9.9,9.9,0,0,1-3,.69c-0.23,0-.47,0-0.7,0,0-2,0-4-.06-6,0-7-.18-13.67-0.27-20l-0.08-4.38a15.45,15.45,0,0,0,1.82-.27,14.09,14.09,0,0,0,3.27-1.1,20,20,0,0,0,2.85-1.62c1.66-1.11,3.18-2.24,4.65-3.3s2.84-2.08,4.1-3c6.8-4.33,11.09-6.85,11-2.32h0c0,4.46,0,12.38,0,18.27a30.54,30.54,0,0,1-.64,6.87c-0.9,2.27-4.85,5.2-9.56,8.33Zm10.09-43.35c-0.2,3.94-6.42,7.74-6.42,7.74l-5.26,3.38-9.07,5.82a16.22,16.22,0,0,1-5.52,2.29,13.45,13.45,0,0,1-1.46.2l-0.22-11.49c-0.11-5.56-.28-10.66-0.44-15.17q-0.08-2.3-.16-4.4c0.47-.12.93-0.25,1.38-0.4a28.66,28.66,0,0,0,3-1.25l1.4-.68,1.35-.71,2.59-1.4c1.71-.9,3.33-1.84,4.87-2.71s2.94-1.71,4.36-2.37c9.49-4.72,10.64-4.27,10.32,1.73C2064.25,5251.31,2063.64,5268.9,2063.55,5270.72Zm42.14,133.93c2.58,12.13,1.67,26.12-9.31,32.11-9.37,4.62-24.25,11-24.25,11a38.29,38.29,0,0,1-15.76,3.77c-19.61,0-32.42-19.75-37.72-49-0.22-.92-1.09-10-1.22-12l-0.29-6.36c-0.11-2.22-.19-4.53-0.26-6.92s-0.18-4.87-.22-7.41l-0.17-7.83-0.1-8.18c0.09-.35,0-0.55.67-0.46l18.7,7.76a80.25,80.25,0,0,0,1.23,10.3,34.07,34.07,0,0,0,3.72,10.59,20.43,20.43,0,0,0,7.9,7.81c0.42,0.24.81,0.42,1.23,0.63L2051,5391c0.77,0.41,1.53.83,2.27,1.29a41.53,41.53,0,0,1,4.22,3,48.18,48.18,0,0,1,12.37,15.23,45.16,45.16,0,0,1,5,16.89c0.43,5.46-.43,10.61-2.55,14.53a17.11,17.11,0,0,1-3.85,4.85,16.91,16.91,0,0,1-4.49,2.8,23,23,0,0,1-7.26,1.73l-1.15.08h0l1.15,0a22.4,22.4,0,0,0,7.37-1.52,17.3,17.3,0,0,0,4.66-2.75,17.64,17.64,0,0,0,4.09-4.9,22.59,22.59,0,0,0,2.47-6.84,31.81,31.81,0,0,0,.46-8.05,46.21,46.21,0,0,0-4.9-17.37,50.75,50.75,0,0,0-5.29-8.38,45.81,45.81,0,0,0-7.27-7.4,43,43,0,0,0-4.36-3.09c-0.76-.48-1.55-0.92-2.35-1.35l-1.21-.61c-0.38-.19-0.8-0.4-1.15-0.6a18.93,18.93,0,0,1-7.29-7.28,32.56,32.56,0,0,1-3.49-10.13,82.79,82.79,0,0,1-1.15-9.92l10.06-4c0.77,21.07,11.37,26.88,21.47,30.45,9,3.17,17.46,6.16,19.32,21.54l0.18,1.48,15.16-7.09A1.52,1.52,0,0,1,2105.69,5404.64Zm-4.61-13.59a55.69,55.69,0,0,1,3,7.63,2.36,2.36,0,0,1-1.25,2.84l-12.7,6c-2.38-15.44-11.61-18.69-20.54-21.84-10.05-3.55-19.55-6.9-19.92-27.59l0-3.82-12.51,4.79c-0.18-3.3-.3-6.63-0.47-9.93-0.18-3.69-.23-7.34-0.3-11q-0.11-6.75-.17-13.35c0.26,0,.53,0,0.79,0a10.45,10.45,0,0,0,1.89-.3,9.06,9.06,0,0,0,.87-0.27,8.49,8.49,0,0,0,.82-0.31,27.42,27.42,0,0,0,2.94-1.45l0.67-.38,0.33-.19,0.12-.07,0,0,0.08-.05,0.15-.1,1.21-.83,2.33-1.63c1.52-1,2.93-2.09,4.25-3,9.57-6.78,11.12-6.53,11-.61,0,1.21-.11,2.64-0.24,4.32C2060.17,5383.24,2090.07,5371.11,2101.08,5391Zm-28.63-181.9c-1.31,6.35-4.15,20.31-5.23,25.54-1.26,6.12-4.67,9-4.67,9l-9.22,4.58-9.45,4.7c-1.73.85-3.51,1.77-5.35,2.61a23.8,23.8,0,0,1-3.62,1.37q-0.06-1.5-.12-2.87c0.08-9.48-1.82-14.94-3.46-16.82a13.4,13.4,0,0,0-3.06-3.59,1.2,1.2,0,0,1-.28-1.57l10.59-17,0.17,0.1c0.63,0.28,1.25.59,1.89,0.83l1,0.31a6.16,6.16,0,0,0,1,.27,13.21,13.21,0,0,0,2,.31l1,0.06c0.34,0,.69,0,1,0s0.69,0,1-.08l1-.2a12.18,12.18,0,0,0,2-.56l0.49-.16,0.46-.22,0.93-.44a6.45,6.45,0,0,0,.89-0.5l0.86-.54c0.57-.36,1.08-0.82,1.61-1.22s1-.92,1.47-1.37a6.82,6.82,0,0,0,.68-0.74l0.65-.77a17.39,17.39,0,0,0,1.19-1.61c0.19-.27.38-0.54,0.57-0.82l0.5-.86c0.25-.45.52-0.88,0.76-1.33l8.82,1.1A2.11,2.11,0,0,1,2072.46,5209.15Zm2.46-10.51a26.72,26.72,0,0,1-1.23,4.78c-1.19,3.2-12.28,1.37-12.28,1.37a19.1,19.1,0,0,1-1,1.65l-0.53.81c-0.19.26-.39,0.51-0.59,0.76a16.51,16.51,0,0,1-1.22,1.48l-0.66.7a7,7,0,0,1-.68.68c-0.48.41-.93,0.87-1.44,1.25s-1,.77-1.55,1.08l-0.82.47a5.66,5.66,0,0,1-.84.43l-0.86.37-0.43.18-0.45.13a11,11,0,0,1-1.81.44l-0.91.15c-0.31,0-.62,0-0.92,0a9.23,9.23,0,0,1-.92,0l-0.92-.08a11.63,11.63,0,0,1-1.82-.32,5.14,5.14,0,0,1-.88-0.26l-0.87-.3c-0.57-.23-1.12-0.53-1.67-0.79l-1.54-1-0.68-.6c-0.23-.21-0.45-0.44-0.67-0.66a15.73,15.73,0,0,1-1.22-1.42,13.79,13.79,0,0,1-1-1.55,13.52,13.52,0,0,1-.78-1.67l-0.29-.87c-0.07-.3-0.16-0.59-0.22-0.89a12.38,12.38,0,0,1-.24-1.82,9.14,9.14,0,0,1,0-.92,8.87,8.87,0,0,1,0-.92,14.3,14.3,0,0,1,.26-1.83,17,17,0,0,1,.48-1.8c0.19-.59.42-1.18,0.67-1.76s0.54-1.14.84-1.7,0.63-1.1,1-1.63,0.72-1,1.11-1.55,0.79-1,1.21-1.48,0.86-.95,1.31-1.41,0.92-.9,1.39-1.33l0.55-.51-0.27-.68-3.9-9.7c1-.85,2-1.7,3-2.57a98,98,0,0,0,8.54-8.5,54,54,0,0,0,6.9-9.65c0.49-.84.9-1.77,1.34-2.67,0.22-.45.36-0.88,0.55-1.32l0.26-.65,0.15-.4,0.11-.33c0.61-1.75,1.19-3.5,1.83-5.2,1.26-3.41,2.6-6.7,4.11-9.81a64.75,64.75,0,0,1,10.54-16.2,36.65,36.65,0,0,1,2.64-2.56l0.64,6.18,0.82,7.55,0.83,7.55,0.82,7.21c-1,1.61-1.95,3.23-2.9,4.86l-3,5.15-3,5.18c-1,1.72-2,3.47-2.93,5.21s-1.94,3.48-2.89,5.23-1.91,3.5-2.83,5.26-1.86,3.53-2.77,5.3c-0.46.88-.9,1.78-1.35,2.67s-0.88,1.79-1.32,2.69c0.56-.83,1.13-1.65,1.68-2.48s1.11-1.66,1.65-2.5c1.09-1.67,2.17-3.35,3.23-5s2.12-3.37,3.16-5.07,2.09-3.39,3.11-5.1,2.06-3.41,3.07-5.13l3-5.15,3-5.18c0.86-1.48,1.69-3,2.53-4.46l14.65,2.53a2.29,2.29,0,0,1,.59.27c0,0.53-.16,1.84-1.79,4.05C2076.26,5180.62,2076.25,5192.59,2074.91,5198.64Zm35.5-72.34a35.07,35.07,0,0,1-9.16,19.38l-0.79.87c-1.66,1.49-10.15,0-11.74-.55h0l-6.19-2-0.89-6.85-1-7.52-1-7.52-1-6.95h0a1.7,1.7,0,0,1,0-.65,5.47,5.47,0,0,1-.68-0.5l-7.17-3.66h0c-6.21-3.43-13.61-7-14.14-9.32a8.9,8.9,0,0,1,1.45-6.16s28.12,16,28.13,16l-3.73,33.13,5.08-33.52,0.83-.18a17.1,17.1,0,0,1,6.69,0,22.32,22.32,0,0,1,5.42,2,32.32,32.32,0,0,1,6.62,4.78c0.71,0.63,1.2,1.18,1.55,1.52l0.53,0.53,0.12-.11-0.51-.54c-0.35-.35-0.82-0.91-1.51-1.56l-1.17-1.09c-0.43-.4-0.94-0.79-1.47-1.23a30,30,0,0,0-3.94-2.66,22.83,22.83,0,0,0-5.51-2.11,17.72,17.72,0,0,0-6.93-.19l-0.6.12h0l-29.59-14.88c1.87-2.62,5.27-3.79,8.76-3.79a16,16,0,0,1,5.38.93,229.42,229.42,0,0,1,27.4,12.69C2107.47,5110.19,2111.61,5117.15,2110.42,5126.3Z" transform="translate(-1767.04 -5085.18)"/></svg>